{
	"asset":{
		"generator":"Khronos glTF Blender I/O v3.5.30",
		"version":"2.0"
	},
	"extensionsUsed":[
		"KHR_materials_specular",
		"KHR_materials_ior"
	],
	"scene":0,
	"scenes":[
		{
			"extras":{
				"jiggle_tree":{},
				"jiggle_rate":1.0
			},
			"name":"Scene",
			"nodes":[
				0,
				1,
				2,
				3,
				4,
				5,
				6,
				7,
				8,
				9,
				10,
				11,
				12,
				13,
				14,
				15,
				16
			]
		}
	],
	"nodes":[
		{
			"mesh":0,
			"name":"Wall1",
			"rotation":[
				0,
				0,
				-0.7071067690849304,
				0.7071068286895752
			],
			"scale":[
				18.94818878173828,
				18.94818878173828,
				18.94818878173828
			],
			"translation":[
				-10,
				9.999999046325684,
				0
			]
		},
		{
			"mesh":1,
			"name":"Wall2",
			"rotation":[
				0.7071068286895752,
				-0.7071067690849304,
				0,
				1.1520234011186403e-07
			],
			"scale":[
				18.94818878173828,
				18.94818878173828,
				18.94818878173828
			],
			"translation":[
				11.000000953674316,
				9.999999046325684,
				0
			]
		},
		{
			"mesh":2,
			"name":"Wall3",
			"rotation":[
				-0.5000002980232239,
				0.5000001788139343,
				-0.4999997913837433,
				0.4999998211860657
			],
			"scale":[
				18.94818878173828,
				18.94818878173828,
				18.94818878173828
			],
			"translation":[
				0,
				9.999999046325684,
				19
			]
		},
		{
			"mesh":3,
			"name":"Wall4",
			"rotation":[
				0.49999988079071045,
				-0.49999985098838806,
				-0.5000001192092896,
				0.5000001192092896
			],
			"scale":[
				18.94818878173828,
				18.94818878173828,
				18.94818878173828
			],
			"translation":[
				2.0000007152557373,
				9.999999046325684,
				-19
			]
		},
		{
			"mesh":4,
			"name":"Ceiling",
			"rotation":[
				0,
				0,
				1,
				1.6292069915380125e-07
			],
			"scale":[
				15.819421768188477,
				15.819421768188477,
				15.819421768188477
			],
			"translation":[
				0,
				20,
				0
			]
		},
		{
			"mesh":5,
			"name":"Test_collider",
			"scale":[
				16.349998474121094,
				0.39999985694885254,
				25.89999771118164
			],
			"translation":[
				0,
				-0.39999985694885254,
				0
			]
		},
		{
			"mesh":6,
			"name":"Pipe",
			"rotation":[
				0,
				0,
				-1,
				7.549790126404332e-08
			],
			"translation":[
				-7,
				9,
				8
			]
		},
		{
			"mesh":7,
			"name":"PipeOpening",
			"translation":[
				0,
				13,
				-10
			]
		},
		{
			"mesh":8,
			"name":"ValveMount",
			"rotation":[
				0,
				0,
				0.7071068286895752,
				0.7071068286895752
			],
			"translation":[
				-6,
				8,
				8
			]
		},
		{
			"mesh":9,
			"name":"Valve",
			"rotation":[
				0,
				0,
				-0.7071068286895752,
				0.7071067094802856
			],
			"translation":[
				-5.4033026695251465,
				8,
				8
			]
		},
		{
			"mesh":10,
			"name":"Railing.001",
			"rotation":[
				0,
				0.7071068286895752,
				0,
				0.7071067094802856
			],
			"translation":[
				-5,
				3,
				-5
			]
		},
		{
			"mesh":11,
			"name":"Railing.002",
			"rotation":[
				0,
				0.7071068286895752,
				0,
				0.7071067094802856
			],
			"translation":[
				-5,
				3,
				3
			]
		},
		{
			"mesh":12,
			"name":"Railing.003",
			"rotation":[
				0,
				0.7071068286895752,
				0,
				0.7071067094802856
			],
			"translation":[
				-5,
				3,
				11
			]
		},
		{
			"mesh":13,
			"name":"Railing.004",
			"rotation":[
				0,
				0.7071068286895752,
				0,
				0.7071067094802856
			],
			"translation":[
				1,
				3,
				-5
			]
		},
		{
			"mesh":14,
			"name":"Railing.005",
			"rotation":[
				0,
				0.7071068286895752,
				0,
				0.7071067094802856
			],
			"translation":[
				1,
				3,
				3
			]
		},
		{
			"mesh":15,
			"name":"Railing.006",
			"rotation":[
				0,
				0.7071068286895752,
				0,
				0.7071067094802856
			],
			"translation":[
				1,
				3,
				11
			]
		},
		{
			"mesh":16,
			"name":"RailingFloor",
			"translation":[
				-4,
				3,
				-3
			]
		}
	],
	"materials":[
		{
			"doubleSided":true,
			"extensions":{
				"KHR_materials_specular":{
					"specularColorFactor":[
						1.789297098798951,
						1.789297098798951,
						1.789297098798951
					]
				},
				"KHR_materials_ior":{
					"ior":1.4500000476837158
				}
			},
			"name":"Walls/Floor",
			"pbrMetallicRoughness":{
				"baseColorFactor":[
					0.07073069363832474,
					0.07073069363832474,
					0.07073069363832474,
					1
				],
				"metallicFactor":0.44545453786849976,
				"roughnessFactor":0.22272726893424988
			}
		},
		{
			"doubleSided":true,
			"extensions":{
				"KHR_materials_specular":{
					"specularColorFactor":[
						0.6575127314177643,
						0.6575127314177643,
						0.6575127314177643
					]
				},
				"KHR_materials_ior":{
					"ior":1.4500000476837158
				}
			},
			"name":"Pipe",
			"pbrMetallicRoughness":{
				"baseColorFactor":[
					0,
					0,
					0,
					1
				],
				"metallicFactor":0.459090918302536,
				"roughnessFactor":0.5181818008422852
			}
		},
		{
			"doubleSided":true,
			"name":"PipeOpeningYellow",
			"pbrMetallicRoughness":{
				"baseColorFactor":[
					1,
					0.4788796901702881,
					0,
					1
				],
				"metallicFactor":0,
				"roughnessFactor":0.5
			}
		},
		{
			"doubleSided":true,
			"extensions":{
				"KHR_materials_specular":{
					"specularColorFactor":[
						0.8407540388879989,
						0.8407540388879989,
						0.8407540388879989
					]
				},
				"KHR_materials_ior":{
					"ior":1.4500000476837158
				}
			},
			"name":"PipeOpeningBlack",
			"pbrMetallicRoughness":{
				"baseColorFactor":[
					0,
					0,
					0,
					1
				],
				"metallicFactor":0,
				"roughnessFactor":0.7681818008422852
			}
		},
		{
			"doubleSided":true,
			"extensions":{
				"KHR_materials_specular":{
					"specularColorFactor":[
						2.371357614441398,
						2.371357614441398,
						2.371357614441398
					]
				},
				"KHR_materials_ior":{
					"ior":1.4500000476837158
				}
			},
			"name":"Material",
			"pbrMetallicRoughness":{
				"baseColorFactor":[
					0.8000000715255737,
					0.012098154984414577,
					0,
					1
				],
				"metallicFactor":0,
				"roughnessFactor":0.34090909361839294
			}
		},
		{
			"doubleSided":true,
			"name":"Railing",
			"pbrMetallicRoughness":{
				"baseColorFactor":[
					0.08009124547243118,
					0.08009124547243118,
					0.08009124547243118,
					1
				],
				"roughnessFactor":0
			}
		}
	],
	"meshes":[
		{
			"name":"Wall1",
			"primitives":[
				{
					"attributes":{
						"POSITION":0,
						"TEXCOORD_0":1,
						"NORMAL":2
					},
					"indices":3,
					"material":0
				}
			]
		},
		{
			"name":"Wall2",
			"primitives":[
				{
					"attributes":{
						"POSITION":4,
						"TEXCOORD_0":5,
						"NORMAL":6
					},
					"indices":3,
					"material":0
				}
			]
		},
		{
			"name":"Wall3",
			"primitives":[
				{
					"attributes":{
						"POSITION":7,
						"TEXCOORD_0":8,
						"NORMAL":9
					},
					"indices":3,
					"material":0
				}
			]
		},
		{
			"name":"Wall4",
			"primitives":[
				{
					"attributes":{
						"POSITION":10,
						"TEXCOORD_0":11,
						"NORMAL":12
					},
					"indices":3,
					"material":0
				}
			]
		},
		{
			"name":"Ceiling",
			"primitives":[
				{
					"attributes":{
						"POSITION":13,
						"TEXCOORD_0":14,
						"NORMAL":15
					},
					"indices":3,
					"material":0
				}
			]
		},
		{
			"extras":{
				"collider_type":"Box"
			},
			"name":"Test_collider",
			"primitives":[
				{
					"attributes":{
						"POSITION":16,
						"TEXCOORD_0":17,
						"NORMAL":18
					},
					"indices":19,
					"material":0
				}
			]
		},
		{
			"name":"Pipe",
			"primitives":[
				{
					"attributes":{
						"POSITION":20,
						"TEXCOORD_0":21,
						"NORMAL":22
					},
					"indices":23,
					"material":1
				},
				{
					"attributes":{
						"POSITION":24,
						"TEXCOORD_0":25,
						"NORMAL":26
					},
					"indices":27,
					"material":1
				}
			]
		},
		{
			"name":"PipeOpening",
			"primitives":[
				{
					"attributes":{
						"POSITION":28,
						"TEXCOORD_0":29,
						"NORMAL":30
					},
					"indices":31,
					"material":2
				},
				{
					"attributes":{
						"POSITION":32,
						"TEXCOORD_0":33,
						"NORMAL":34
					},
					"indices":35,
					"material":3
				}
			]
		},
		{
			"name":"ValveMount",
			"primitives":[
				{
					"attributes":{
						"POSITION":36,
						"TEXCOORD_0":37,
						"NORMAL":38
					},
					"indices":39,
					"material":1
				}
			]
		},
		{
			"extras":{
				"collider_type":"Valve"
			},
			"name":"Valve",
			"primitives":[
				{
					"attributes":{
						"POSITION":40,
						"TEXCOORD_0":41,
						"NORMAL":42
					},
					"indices":43,
					"material":4
				}
			]
		},
		{
			"name":"Railing.001",
			"primitives":[
				{
					"attributes":{
						"POSITION":44,
						"TEXCOORD_0":45,
						"NORMAL":46
					},
					"indices":47,
					"material":5
				}
			]
		},
		{
			"name":"Railing.002",
			"primitives":[
				{
					"attributes":{
						"POSITION":48,
						"TEXCOORD_0":49,
						"NORMAL":50
					},
					"indices":47,
					"material":5
				}
			]
		},
		{
			"name":"Railing.003",
			"primitives":[
				{
					"attributes":{
						"POSITION":51,
						"TEXCOORD_0":52,
						"NORMAL":53
					},
					"indices":47,
					"material":5
				}
			]
		},
		{
			"name":"Railing.004",
			"primitives":[
				{
					"attributes":{
						"POSITION":54,
						"TEXCOORD_0":55,
						"NORMAL":56
					},
					"indices":47,
					"material":5
				}
			]
		},
		{
			"name":"Railing.005",
			"primitives":[
				{
					"attributes":{
						"POSITION":57,
						"TEXCOORD_0":58,
						"NORMAL":59
					},
					"indices":47,
					"material":5
				}
			]
		},
		{
			"name":"Railing.006",
			"primitives":[
				{
					"attributes":{
						"POSITION":60,
						"TEXCOORD_0":61,
						"NORMAL":62
					},
					"indices":47,
					"material":5
				}
			]
		},
		{
			"name":"RailingFloor",
			"primitives":[
				{
					"attributes":{
						"POSITION":63,
						"TEXCOORD_0":64,
						"NORMAL":65
					},
					"indices":3,
					"material":0
				}
			]
		}
	],
	"accessors":[
		{
			"bufferView":0,
			"componentType":5126,
			"count":4,
			"max":[
				0.5250205397605896,
				3.585995500543504e-08,
				1
			],
			"min":[
				-0.5250205397605896,
				-3.585995500543504e-08,
				-1
			],
			"type":"VEC3"
		},
		{
			"bufferView":1,
			"componentType":5126,
			"count":4,
			"type":"VEC2"
		},
		{
			"bufferView":2,
			"componentType":5126,
			"count":4,
			"type":"VEC3"
		},
		{
			"bufferView":3,
			"componentType":5123,
			"count":6,
			"type":"SCALAR"
		},
		{
			"bufferView":4,
			"componentType":5126,
			"count":4,
			"max":[
				0.5250205397605896,
				3.585995500543504e-08,
				1
			],
			"min":[
				-0.5250205397605896,
				-3.585995500543504e-08,
				-1
			],
			"type":"VEC3"
		},
		{
			"bufferView":5,
			"componentType":5126,
			"count":4,
			"type":"VEC2"
		},
		{
			"bufferView":6,
			"componentType":5126,
			"count":4,
			"type":"VEC3"
		},
		{
			"bufferView":7,
			"componentType":5126,
			"count":4,
			"max":[
				0.5250205397605896,
				3.585995500543504e-08,
				1
			],
			"min":[
				-0.5250205397605896,
				-3.585995500543504e-08,
				-1
			],
			"type":"VEC3"
		},
		{
			"bufferView":8,
			"componentType":5126,
			"count":4,
			"type":"VEC2"
		},
		{
			"bufferView":9,
			"componentType":5126,
			"count":4,
			"type":"VEC3"
		},
		{
			"bufferView":10,
			"componentType":5126,
			"count":4,
			"max":[
				0.5250205397605896,
				3.585995500543504e-08,
				1
			],
			"min":[
				-0.5250205397605896,
				-3.585995500543504e-08,
				-1
			],
			"type":"VEC3"
		},
		{
			"bufferView":11,
			"componentType":5126,
			"count":4,
			"type":"VEC2"
		},
		{
			"bufferView":12,
			"componentType":5126,
			"count":4,
			"type":"VEC3"
		},
		{
			"bufferView":13,
			"componentType":5126,
			"count":4,
			"max":[
				1,
				0,
				1.2528537511825562
			],
			"min":[
				-1,
				0,
				-1.2528537511825562
			],
			"type":"VEC3"
		},
		{
			"bufferView":14,
			"componentType":5126,
			"count":4,
			"type":"VEC2"
		},
		{
			"bufferView":15,
			"componentType":5126,
			"count":4,
			"type":"VEC3"
		},
		{
			"bufferView":16,
			"componentType":5126,
			"count":24,
			"max":[
				1,
				1,
				1
			],
			"min":[
				-1,
				-1,
				-1
			],
			"type":"VEC3"
		},
		{
			"bufferView":17,
			"componentType":5126,
			"count":24,
			"type":"VEC2"
		},
		{
			"bufferView":18,
			"componentType":5126,
			"count":24,
			"type":"VEC3"
		},
		{
			"bufferView":19,
			"componentType":5123,
			"count":36,
			"type":"SCALAR"
		},
		{
			"bufferView":20,
			"componentType":5126,
			"count":8653,
			"max":[
				4.0011186599731445,
				8.337076187133789,
				1.3370747566223145
			],
			"min":[
				-22.53314971923828,
				-6.337073802947998,
				-19.337078094482422
			],
			"type":"VEC3"
		},
		{
			"bufferView":21,
			"componentType":5126,
			"count":8653,
			"type":"VEC2"
		},
		{
			"bufferView":22,
			"componentType":5126,
			"count":8653,
			"type":"VEC3"
		},
		{
			"bufferView":23,
			"componentType":5123,
			"count":14256,
			"type":"SCALAR"
		},
		{
			"bufferView":24,
			"componentType":5126,
			"count":4672,
			"max":[
				1.6740570068359375,
				8.163394927978516,
				1.1633940935134888
			],
			"min":[
				-19.316316604614258,
				-6.190952777862549,
				-19.16339874267578
			],
			"type":"VEC3"
		},
		{
			"bufferView":25,
			"componentType":5126,
			"count":4672,
			"type":"VEC2"
		},
		{
			"bufferView":26,
			"componentType":5126,
			"count":4672,
			"type":"VEC3"
		},
		{
			"bufferView":27,
			"componentType":5123,
			"count":6912,
			"type":"SCALAR"
		},
		{
			"bufferView":28,
			"componentType":5126,
			"count":120,
			"max":[
				0.5977088809013367,
				0.17998015880584717,
				0.5977088809013367
			],
			"min":[
				-0.5977088809013367,
				-0.3463495671749115,
				-0.5977088809013367
			],
			"type":"VEC3"
		},
		{
			"bufferView":29,
			"componentType":5126,
			"count":120,
			"type":"VEC2"
		},
		{
			"bufferView":30,
			"componentType":5126,
			"count":120,
			"type":"VEC3"
		},
		{
			"bufferView":31,
			"componentType":5123,
			"count":216,
			"type":"SCALAR"
		},
		{
			"bufferView":32,
			"componentType":5126,
			"count":108,
			"max":[
				0.5977088809013367,
				0.17998015880584717,
				0.5977088809013367
			],
			"min":[
				-0.5977088809013367,
				-0.3463495671749115,
				-0.5977088809013367
			],
			"type":"VEC3"
		},
		{
			"bufferView":33,
			"componentType":5126,
			"count":108,
			"type":"VEC2"
		},
		{
			"bufferView":34,
			"componentType":5126,
			"count":108,
			"type":"VEC3"
		},
		{
			"bufferView":35,
			"componentType":5123,
			"count":174,
			"type":"SCALAR"
		},
		{
			"bufferView":36,
			"componentType":5126,
			"count":132,
			"max":[
				0.44663694500923157,
				0.17998015880584717,
				0.44663694500923157
			],
			"min":[
				-0.44663694500923157,
				-0.21557044982910156,
				-0.44663694500923157
			],
			"type":"VEC3"
		},
		{
			"bufferView":37,
			"componentType":5126,
			"count":132,
			"type":"VEC2"
		},
		{
			"bufferView":38,
			"componentType":5126,
			"count":132,
			"type":"VEC3"
		},
		{
			"bufferView":39,
			"componentType":5123,
			"count":246,
			"type":"SCALAR"
		},
		{
			"bufferView":40,
			"componentType":5126,
			"count":835,
			"max":[
				0.7055953145027161,
				0.09458277374505997,
				0.6730304956436157
			],
			"min":[
				-0.7073184251785278,
				-0.8769562840461731,
				-0.6707298755645752
			],
			"type":"VEC3"
		},
		{
			"bufferView":41,
			"componentType":5126,
			"count":835,
			"type":"VEC2"
		},
		{
			"bufferView":42,
			"componentType":5126,
			"count":835,
			"type":"VEC3"
		},
		{
			"bufferView":43,
			"componentType":5123,
			"count":1413,
			"type":"SCALAR"
		},
		{
			"bufferView":44,
			"componentType":5126,
			"count":5012,
			"max":[
				7.068576812744141,
				3.5921790599823,
				0.07004233449697495
			],
			"min":[
				-0.06818976998329163,
				-0.003575563430786133,
				-0.0700388103723526
			],
			"type":"VEC3"
		},
		{
			"bufferView":45,
			"componentType":5126,
			"count":5012,
			"type":"VEC2"
		},
		{
			"bufferView":46,
			"componentType":5126,
			"count":5012,
			"type":"VEC3"
		},
		{
			"bufferView":47,
			"componentType":5123,
			"count":6924,
			"type":"SCALAR"
		},
		{
			"bufferView":48,
			"componentType":5126,
			"count":5012,
			"max":[
				7.068576812744141,
				3.5921790599823,
				0.07004233449697495
			],
			"min":[
				-0.06818976998329163,
				-0.003575563430786133,
				-0.0700388103723526
			],
			"type":"VEC3"
		},
		{
			"bufferView":49,
			"componentType":5126,
			"count":5012,
			"type":"VEC2"
		},
		{
			"bufferView":50,
			"componentType":5126,
			"count":5012,
			"type":"VEC3"
		},
		{
			"bufferView":51,
			"componentType":5126,
			"count":5012,
			"max":[
				7.068576812744141,
				3.5921790599823,
				0.07004233449697495
			],
			"min":[
				-0.06818976998329163,
				-0.003575563430786133,
				-0.0700388103723526
			],
			"type":"VEC3"
		},
		{
			"bufferView":52,
			"componentType":5126,
			"count":5012,
			"type":"VEC2"
		},
		{
			"bufferView":53,
			"componentType":5126,
			"count":5012,
			"type":"VEC3"
		},
		{
			"bufferView":54,
			"componentType":5126,
			"count":5012,
			"max":[
				7.068576812744141,
				3.5921790599823,
				0.07004233449697495
			],
			"min":[
				-0.06818976998329163,
				-0.003575563430786133,
				-0.0700388103723526
			],
			"type":"VEC3"
		},
		{
			"bufferView":55,
			"componentType":5126,
			"count":5012,
			"type":"VEC2"
		},
		{
			"bufferView":56,
			"componentType":5126,
			"count":5012,
			"type":"VEC3"
		},
		{
			"bufferView":57,
			"componentType":5126,
			"count":5012,
			"max":[
				7.068576812744141,
				3.5921790599823,
				0.07004233449697495
			],
			"min":[
				-0.06818976998329163,
				-0.003575563430786133,
				-0.0700388103723526
			],
			"type":"VEC3"
		},
		{
			"bufferView":58,
			"componentType":5126,
			"count":5012,
			"type":"VEC2"
		},
		{
			"bufferView":59,
			"componentType":5126,
			"count":5012,
			"type":"VEC3"
		},
		{
			"bufferView":60,
			"componentType":5126,
			"count":5012,
			"max":[
				7.068576812744141,
				3.5921790599823,
				0.07004233449697495
			],
			"min":[
				-0.06818976998329163,
				-0.003575563430786133,
				-0.0700388103723526
			],
			"type":"VEC3"
		},
		{
			"bufferView":61,
			"componentType":5126,
			"count":5012,
			"type":"VEC2"
		},
		{
			"bufferView":62,
			"componentType":5126,
			"count":5012,
			"type":"VEC3"
		},
		{
			"bufferView":63,
			"componentType":5126,
			"count":4,
			"max":[
				5,
				0,
				14
			],
			"min":[
				-1,
				0,
				-10
			],
			"type":"VEC3"
		},
		{
			"bufferView":64,
			"componentType":5126,
			"count":4,
			"type":"VEC2"
		},
		{
			"bufferView":65,
			"componentType":5126,
			"count":4,
			"type":"VEC3"
		}
	],
	"bufferViews":[
		{
			"buffer":0,
			"byteLength":48,
			"byteOffset":0,
			"target":34962
		},
		{
			"buffer":0,
			"byteLength":32,
			"byteOffset":48,
			"target":34962
		},
		{
			"buffer":0,
			"byteLength":48,
			"byteOffset":80,
			"target":34962
		},
		{
			"buffer":0,
			"byteLength":12,
			"byteOffset":128,
			"target":34963
		},
		{
			"buffer":0,
			"byteLength":48,
			"byteOffset":140,
			"target":34962
		},
		{
			"buffer":0,
			"byteLength":32,
			"byteOffset":188,
			"target":34962
		},
		{
			"buffer":0,
			"byteLength":48,
			"byteOffset":220,
			"target":34962
		},
		{
			"buffer":0,
			"byteLength":48,
			"byteOffset":268,
			"target":34962
		},
		{
			"buffer":0,
			"byteLength":32,
			"byteOffset":316,
			"target":34962
		},
		{
			"buffer":0,
			"byteLength":48,
			"byteOffset":348,
			"target":34962
		},
		{
			"buffer":0,
			"byteLength":48,
			"byteOffset":396,
			"target":34962
		},
		{
			"buffer":0,
			"byteLength":32,
			"byteOffset":444,
			"target":34962
		},
		{
			"buffer":0,
			"byteLength":48,
			"byteOffset":476,
			"target":34962
		},
		{
			"buffer":0,
			"byteLength":48,
			"byteOffset":524,
			"target":34962
		},
		{
			"buffer":0,
			"byteLength":32,
			"byteOffset":572,
			"target":34962
		},
		{
			"buffer":0,
			"byteLength":48,
			"byteOffset":604,
			"target":34962
		},
		{
			"buffer":0,
			"byteLength":288,
			"byteOffset":652,
			"target":34962
		},
		{
			"buffer":0,
			"byteLength":192,
			"byteOffset":940,
			"target":34962
		},
		{
			"buffer":0,
			"byteLength":288,
			"byteOffset":1132,
			"target":34962
		},
		{
			"buffer":0,
			"byteLength":72,
			"byteOffset":1420,
			"target":34963
		},
		{
			"buffer":0,
			"byteLength":103836,
			"byteOffset":1492,
			"target":34962
		},
		{
			"buffer":0,
			"byteLength":69224,
			"byteOffset":105328,
			"target":34962
		},
		{
			"buffer":0,
			"byteLength":103836,
			"byteOffset":174552,
			"target":34962
		},
		{
			"buffer":0,
			"byteLength":28512,
			"byteOffset":278388,
			"target":34963
		},
		{
			"buffer":0,
			"byteLength":56064,
			"byteOffset":306900,
			"target":34962
		},
		{
			"buffer":0,
			"byteLength":37376,
			"byteOffset":362964,
			"target":34962
		},
		{
			"buffer":0,
			"byteLength":56064,
			"byteOffset":400340,
			"target":34962
		},
		{
			"buffer":0,
			"byteLength":13824,
			"byteOffset":456404,
			"target":34963
		},
		{
			"buffer":0,
			"byteLength":1440,
			"byteOffset":470228,
			"target":34962
		},
		{
			"buffer":0,
			"byteLength":960,
			"byteOffset":471668,
			"target":34962
		},
		{
			"buffer":0,
			"byteLength":1440,
			"byteOffset":472628,
			"target":34962
		},
		{
			"buffer":0,
			"byteLength":432,
			"byteOffset":474068,
			"target":34963
		},
		{
			"buffer":0,
			"byteLength":1296,
			"byteOffset":474500,
			"target":34962
		},
		{
			"buffer":0,
			"byteLength":864,
			"byteOffset":475796,
			"target":34962
		},
		{
			"buffer":0,
			"byteLength":1296,
			"byteOffset":476660,
			"target":34962
		},
		{
			"buffer":0,
			"byteLength":348,
			"byteOffset":477956,
			"target":34963
		},
		{
			"buffer":0,
			"byteLength":1584,
			"byteOffset":478304,
			"target":34962
		},
		{
			"buffer":0,
			"byteLength":1056,
			"byteOffset":479888,
			"target":34962
		},
		{
			"buffer":0,
			"byteLength":1584,
			"byteOffset":480944,
			"target":34962
		},
		{
			"buffer":0,
			"byteLength":492,
			"byteOffset":482528,
			"target":34963
		},
		{
			"buffer":0,
			"byteLength":10020,
			"byteOffset":483020,
			"target":34962
		},
		{
			"buffer":0,
			"byteLength":6680,
			"byteOffset":493040,
			"target":34962
		},
		{
			"buffer":0,
			"byteLength":10020,
			"byteOffset":499720,
			"target":34962
		},
		{
			"buffer":0,
			"byteLength":2826,
			"byteOffset":509740,
			"target":34963
		},
		{
			"buffer":0,
			"byteLength":60144,
			"byteOffset":512568,
			"target":34962
		},
		{
			"buffer":0,
			"byteLength":40096,
			"byteOffset":572712,
			"target":34962
		},
		{
			"buffer":0,
			"byteLength":60144,
			"byteOffset":612808,
			"target":34962
		},
		{
			"buffer":0,
			"byteLength":13848,
			"byteOffset":672952,
			"target":34963
		},
		{
			"buffer":0,
			"byteLength":60144,
			"byteOffset":686800,
			"target":34962
		},
		{
			"buffer":0,
			"byteLength":40096,
			"byteOffset":746944,
			"target":34962
		},
		{
			"buffer":0,
			"byteLength":60144,
			"byteOffset":787040,
			"target":34962
		},
		{
			"buffer":0,
			"byteLength":60144,
			"byteOffset":847184,
			"target":34962
		},
		{
			"buffer":0,
			"byteLength":40096,
			"byteOffset":907328,
			"target":34962
		},
		{
			"buffer":0,
			"byteLength":60144,
			"byteOffset":947424,
			"target":34962
		},
		{
			"buffer":0,
			"byteLength":60144,
			"byteOffset":1007568,
			"target":34962
		},
		{
			"buffer":0,
			"byteLength":40096,
			"byteOffset":1067712,
			"target":34962
		},
		{
			"buffer":0,
			"byteLength":60144,
			"byteOffset":1107808,
			"target":34962
		},
		{
			"buffer":0,
			"byteLength":60144,
			"byteOffset":1167952,
			"target":34962
		},
		{
			"buffer":0,
			"byteLength":40096,
			"byteOffset":1228096,
			"target":34962
		},
		{
			"buffer":0,
			"byteLength":60144,
			"byteOffset":1268192,
			"target":34962
		},
		{
			"buffer":0,
			"byteLength":60144,
			"byteOffset":1328336,
			"target":34962
		},
		{
			"buffer":0,
			"byteLength":40096,
			"byteOffset":1388480,
			"target":34962
		},
		{
			"buffer":0,
			"byteLength":60144,
			"byteOffset":1428576,
			"target":34962
		},
		{
			"buffer":0,
			"byteLength":48,
			"byteOffset":1488720,
			"target":34962
		},
		{
			"buffer":0,
			"byteLength":32,
			"byteOffset":1488768,
			"target":34962
		},
		{
			"buffer":0,
			"byteLength":48,
			"byteOffset":1488800,
			"target":34962
		}
	],
	"buffers":[
		{
			"byteLength":1488848,
			"uri":"data:application/octet-stream;base64,"
		}
	]
}
